<svg xmlns="http://www.w3.org/2000/svg" viewBox="0 0 240 48" fill="none">
  <circle cx="24" cy="24" r="20" fill="#1B3A4B"/>
  <path d="M14 20c0-3 2-5 4-5s4 2 4 5-2 5-4 5-4-2-4-5zm16 0c0-3 2-5 4-5s4 2 4 5-2 5-4 5-4-2-4-5zm-8 6c-4 0-7 3-7 7v3h14v-3c0-4-3-7-7-7z" fill="#52B788"/>
  <path d="M8 28h32" stroke="#F4A261" stroke-width="2" stroke-linecap="round"/>
  <text x="52" y="32" font-family="DM Sans, sans-serif" font-size="22" font-weight="700" fill="#1B3A4B">petsFollow</text>
  <text x="168" y="32" font-family="DM Sans, sans-serif" font-size="14" font-weight="600" fill="#2A9D8F">Pro</text>
</svg>
